solid OpenSCAD_Model
  facet normal 0.999506 0.0314246 0
    outer loop
      vertex 0.433013 0 0
      vertex 0.432158 0.0271888 0
      vertex 0.432158 0.0271888 0.00170963
    endloop
  endfacet
  facet normal -0.999506 0.0314246 0
    outer loop
      vertex -0.432158 0.0271888 0
      vertex -0.433013 0 0
      vertex -0.432158 0.0271888 0.00170963
    endloop
  endfacet
  facet normal 0.0314246 0.999506 0
    outer loop
      vertex 0 0.433013 0
      vertex 0.0271888 0.432158 0.811648
      vertex 0.0271888 0.432158 0
    endloop
  endfacet
  facet normal 0.0314246 0.999506 0
    outer loop
      vertex 0.0271888 0.432158 0.811648
      vertex 0 0.433013 0
      vertex 0 0.433013 0.866025
    endloop
  endfacet
  facet normal -0.0314246 -0.999506 0
    outer loop
      vertex 0 -0.433013 0
      vertex -0.0271888 -0.432158 0.811648
      vertex -0.0271888 -0.432158 0
    endloop
  endfacet
  facet normal -0.0314253 -0.999506 -2.44915e-08
    outer loop
      vertex -0.0271888 -0.432158 0.811648
      vertex 0 -0.433013 0
      vertex -2.62678e-05 -0.433012 0.865973
    endloop
  endfacet
  facet normal -0.750115 -0.661307 0
    outer loop
      vertex -0.315652 -0.296417 0
      vertex -0.333641 -0.276012 0.198743
      vertex -0.333641 -0.276012 0
    endloop
  endfacet
  facet normal -0.750115 -0.661307 0
    outer loop
      vertex -0.333641 -0.276012 0.198743
      vertex -0.315652 -0.296417 0
      vertex -0.315652 -0.296417 0.234721
    endloop
  endfacet
  facet normal 0.707107 0.707107 0
    outer loop
      vertex 0.315652 0.296417 0.234721
      vertex 0.296417 0.315652 0
      vertex 0.296417 0.315652 0.273192
    endloop
  endfacet
  facet normal 0.707107 0.707107 0
    outer loop
      vertex 0.296417 0.315652 0
      vertex 0.315652 0.296417 0.234721
      vertex 0.315652 0.296417 0
    endloop
  endfacet
  facet normal -0.661307 0.750115 0
    outer loop
      vertex -0.276012 0.333641 0
      vertex -0.296417 0.315652 0.273192
      vertex -0.276012 0.333641 0.314001
    endloop
  endfacet
  facet normal -0.661307 0.750115 0
    outer loop
      vertex -0.296417 0.315652 0.273192
      vertex -0.276012 0.333641 0
      vertex -0.296417 0.315652 0
    endloop
  endfacet
  facet normal -0.338736 0.940882 0
    outer loop
      vertex -0.133808 0.411819 0
      vertex -0.159402 0.402604 0.547221
      vertex -0.133808 0.411819 0.59841
    endloop
  endfacet
  facet normal -0.338736 0.940882 0
    outer loop
      vertex -0.159402 0.402604 0.547221
      vertex -0.133808 0.411819 0
      vertex -0.159402 0.402604 0
    endloop
  endfacet
  facet normal -0.940882 -0.338736 0
    outer loop
      vertex -0.402604 -0.159402 0
      vertex -0.411819 -0.133808 0.0423872
      vertex -0.411819 -0.133808 0
    endloop
  endfacet
  facet normal -0.940882 -0.338736 0
    outer loop
      vertex -0.411819 -0.133808 0.0423872
      vertex -0.402604 -0.159402 0
      vertex -0.402604 -0.159402 0.0608164
    endloop
  endfacet
  facet normal 0.917748 0.397163 0
    outer loop
      vertex 0.402604 0.159402 0.0608164
      vertex 0.391801 0.184367 0
      vertex 0.391801 0.184367 0.0824238
    endloop
  endfacet
  facet normal 0.917748 0.397163 0
    outer loop
      vertex 0.391801 0.184367 0
      vertex 0.402604 0.159402 0.0608164
      vertex 0.402604 0.159402 0
    endloop
  endfacet
  facet normal 0.397163 0.917748 0
    outer loop
      vertex 0.159402 0.402604 0
      vertex 0.184367 0.391801 0.497291
      vertex 0.184367 0.391801 0
    endloop
  endfacet
  facet normal 0.397163 0.917748 0
    outer loop
      vertex 0.184367 0.391801 0.497291
      vertex 0.159402 0.402604 0
      vertex 0.159402 0.402604 0.547221
    endloop
  endfacet
  facet normal 0.562084 0.82708 0
    outer loop
      vertex 0.232019 0.365604 0
      vertex 0.254518 0.350314 0.35699
      vertex 0.254518 0.350314 0
    endloop
  endfacet
  facet normal 0.562084 0.82708 0
    outer loop
      vertex 0.254518 0.350314 0.35699
      vertex 0.232019 0.365604 0
      vertex 0.232019 0.365604 0.401987
    endloop
  endfacet
  facet normal -0.917748 0.397163 0
    outer loop
      vertex -0.402604 0.159402 0.0608164
      vertex -0.391801 0.184367 0
      vertex -0.402604 0.159402 0
    endloop
  endfacet
  facet normal -0.917748 0.397163 0
    outer loop
      vertex -0.391801 0.184367 0
      vertex -0.402604 0.159402 0.0608164
      vertex -0.391801 0.184367 0.0824238
    endloop
  endfacet
  facet normal -0.156423 0.98769 0
    outer loop
      vertex -0.0542703 0.429598 0
      vertex -0.0811379 0.425343 0.70375
      vertex -0.0542703 0.429598 0.757485
    endloop
  endfacet
  facet normal -0.156423 0.98769 0
    outer loop
      vertex -0.0811379 0.425343 0.70375
      vertex -0.0542703 0.429598 0
      vertex -0.0811379 0.425343 0
    endloop
  endfacet
  facet normal -0.98769 -0.156423 0
    outer loop
      vertex -0.425343 -0.0811379 0
      vertex -0.429598 -0.0542703 0.00683024
      vertex -0.429598 -0.0542703 0
    endloop
  endfacet
  facet normal -0.98769 -0.156423 0
    outer loop
      vertex -0.429598 -0.0542703 0.00683024
      vertex -0.425343 -0.0811379 0
      vertex -0.425343 -0.0811379 0.0153404
    endloop
  endfacet
  facet normal 0 0 -1
    outer loop
      vertex 0.432158 -0.0271888 0
      vertex 0.432158 0.0271888 0
      vertex 0.433013 0 0
    endloop
  endfacet
  facet normal 0 0 -1
    outer loop
      vertex 0.429598 -0.0542703 0
      vertex 0.432158 0.0271888 0
      vertex 0.432158 -0.0271888 0
    endloop
  endfacet
  facet normal 0 0 -1
    outer loop
      vertex 0.429598 -0.0542703 0
      vertex 0.429598 0.0542703 0
      vertex 0.432158 0.0271888 0
    endloop
  endfacet
  facet normal 0 0 -1
    outer loop
      vertex 0.425343 -0.0811379 0
      vertex 0.429598 0.0542703 0
      vertex 0.429598 -0.0542703 0
    endloop
  endfacet
  facet normal 0 0 -1
    outer loop
      vertex 0.425343 -0.0811379 0
      vertex 0.425343 0.0811379 0
      vertex 0.429598 0.0542703 0
    endloop
  endfacet
  facet normal 0 0 -1
    outer loop
      vertex 0.419408 -0.107686 0
      vertex 0.425343 0.0811379 0
      vertex 0.425343 -0.0811379 0
    endloop
  endfacet
  facet normal 0 0 -1
    outer loop
      vertex 0.419408 -0.107686 0
      vertex 0.419408 0.107686 0
      vertex 0.425343 0.0811379 0
    endloop
  endfacet
  facet normal 0 0 -1
    outer loop
      vertex 0.411819 -0.133808 0
      vertex 0.419408 0.107686 0
      vertex 0.419408 -0.107686 0
    endloop
  endfacet
  facet normal 0 0 -1
    outer loop
      vertex 0.411819 -0.133808 0
      vertex 0.411819 0.133808 0
      vertex 0.419408 0.107686 0
    endloop
  endfacet
  facet normal 0 0 -1
    outer loop
      vertex 0.402604 -0.159402 0
      vertex 0.411819 0.133808 0
      vertex 0.411819 -0.133808 0
    endloop
  endfacet
  facet normal 0 0 -1
    outer loop
      vertex 0.402604 -0.159402 0
      vertex 0.402604 0.159402 0
      vertex 0.411819 0.133808 0
    endloop
  endfacet
  facet normal 0 0 -1
    outer loop
      vertex 0.391801 -0.184367 0
      vertex 0.402604 0.159402 0
      vertex 0.402604 -0.159402 0
    endloop
  endfacet
  facet normal 0 0 -1
    outer loop
      vertex 0.391801 -0.184367 0
      vertex 0.391801 0.184367 0
      vertex 0.402604 0.159402 0
    endloop
  endfacet
  facet normal 0 0 -1
    outer loop
      vertex 0.379452 -0.208605 0
      vertex 0.391801 0.184367 0
      vertex 0.391801 -0.184367 0
    endloop
  endfacet
  facet normal 0 0 -1
    outer loop
      vertex 0.379452 -0.208605 0
      vertex 0.379452 0.208605 0
      vertex 0.391801 0.184367 0
    endloop
  endfacet
  facet normal 0 0 -1
    outer loop
      vertex 0.365604 -0.232019 0
      vertex 0.379452 0.208605 0
      vertex 0.379452 -0.208605 0
    endloop
  endfacet
  facet normal 0 0 -1
    outer loop
      vertex 0.365604 -0.232019 0
      vertex 0.365604 0.232019 0
      vertex 0.379452 0.208605 0
    endloop
  endfacet
  facet normal 0 0 -1
    outer loop
      vertex 0.350314 -0.254518 0
      vertex 0.365604 0.232019 0
      vertex 0.365604 -0.232019 0
    endloop
  endfacet
  facet normal 0 0 -1
    outer loop
      vertex 0.350314 -0.254518 0
      vertex 0.350314 0.254518 0
      vertex 0.365604 0.232019 0
    endloop
  endfacet
  facet normal 0 0 -1
    outer loop
      vertex 0.333641 -0.276012 0
      vertex 0.350314 0.254518 0
      vertex 0.350314 -0.254518 0
    endloop
  endfacet
  facet normal 0 0 -1
    outer loop
      vertex 0.333641 -0.276012 0
      vertex 0.333641 0.276012 0
      vertex 0.350314 0.254518 0
    endloop
  endfacet
  facet normal 0 0 -1
    outer loop
      vertex 0.315652 -0.296417 0
      vertex 0.333641 0.276012 0
      vertex 0.333641 -0.276012 0
    endloop
  endfacet
  facet normal 0 0 -1
    outer loop
      vertex 0.315652 -0.296417 0
      vertex 0.315652 0.296417 0
      vertex 0.333641 0.276012 0
    endloop
  endfacet
  facet normal 0 0 -1
    outer loop
      vertex 0.296417 -0.315652 0
      vertex 0.315652 0.296417 0
      vertex 0.315652 -0.296417 0
    endloop
  endfacet
  facet normal 0 0 -1
    outer loop
      vertex 0.296417 -0.315652 0
      vertex 0.296417 0.315652 0
      vertex 0.315652 0.296417 0
    endloop
  endfacet
  facet normal 0 0 -1
    outer loop
      vertex 0.276012 -0.333641 0
      vertex 0.296417 0.315652 0
      vertex 0.296417 -0.315652 0
    endloop
  endfacet
  facet normal 0 0 -1
    outer loop
      vertex 0.276012 -0.333641 0
      vertex 0.276012 0.333641 0
      vertex 0.296417 0.315652 0
    endloop
  endfacet
  facet normal 0 0 -1
    outer loop
      vertex 0.254518 -0.350314 0
      vertex 0.276012 0.333641 0
      vertex 0.276012 -0.333641 0
    endloop
  endfacet
  facet normal 0 0 -1
    outer loop
      vertex 0.254518 -0.350314 0
      vertex 0.254518 0.350314 0
      vertex 0.276012 0.333641 0
    endloop
  endfacet
  facet normal 0 0 -1
    outer loop
      vertex 0.232019 -0.365604 0
      vertex 0.254518 0.350314 0
      vertex 0.254518 -0.350314 0
    endloop
  endfacet
  facet normal 0 0 -1
    outer loop
      vertex 0.232019 -0.365604 0
      vertex 0.232019 0.365604 0
      vertex 0.254518 0.350314 0
    endloop
  endfacet
  facet normal 0 0 -1
    outer loop
      vertex 0.208605 -0.379452 0
      vertex 0.232019 0.365604 0
      vertex 0.232019 -0.365604 0
    endloop
  endfacet
  facet normal 0 0 -1
    outer loop
      vertex 0.208605 -0.379452 0
      vertex 0.208605 0.379452 0
      vertex 0.232019 0.365604 0
    endloop
  endfacet
  facet normal 0 0 -1
    outer loop
      vertex 0.184367 -0.391801 0
      vertex 0.208605 0.379452 0
      vertex 0.208605 -0.379452 0
    endloop
  endfacet
  facet normal 0 0 -1
    outer loop
      vertex 0.184367 -0.391801 0
      vertex 0.184367 0.391801 0
      vertex 0.208605 0.379452 0
    endloop
  endfacet
  facet normal 0 0 -1
    outer loop
      vertex 0.159402 -0.402604 0
      vertex 0.184367 0.391801 0
      vertex 0.184367 -0.391801 0
    endloop
  endfacet
  facet normal 0 0 -1
    outer loop
      vertex 0.159402 -0.402604 0
      vertex 0.159402 0.402604 0
      vertex 0.184367 0.391801 0
    endloop
  endfacet
  facet normal 0 0 -1
    outer loop
      vertex 0.133808 -0.411819 0
      vertex 0.159402 0.402604 0
      vertex 0.159402 -0.402604 0
    endloop
  endfacet
  facet normal 0 0 -1
    outer loop
      vertex 0.133808 -0.411819 0
      vertex 0.133808 0.411819 0
      vertex 0.159402 0.402604 0
    endloop
  endfacet
  facet normal 0 0 -1
    outer loop
      vertex 0.107686 -0.419408 0
      vertex 0.133808 0.411819 0
      vertex 0.133808 -0.411819 0
    endloop
  endfacet
  facet normal 0 0 -1
    outer loop
      vertex 0.107686 -0.419408 0
      vertex 0.107686 0.419408 0
      vertex 0.133808 0.411819 0
    endloop
  endfacet
  facet normal 0 0 -1
    outer loop
      vertex 0.0811379 -0.425343 0
      vertex 0.107686 0.419408 0
      vertex 0.107686 -0.419408 0
    endloop
  endfacet
  facet normal 0 0 -1
    outer loop
      vertex 0.0811379 -0.425343 0
      vertex 0.0811379 0.425343 0
      vertex 0.107686 0.419408 0
    endloop
  endfacet
  facet normal 0 0 -1
    outer loop
      vertex 0.0542703 -0.429598 0
      vertex 0.0811379 0.425343 0
      vertex 0.0811379 -0.425343 0
    endloop
  endfacet
  facet normal 0 0 -1
    outer loop
      vertex 0.0542703 -0.429598 0
      vertex 0.0542703 0.429598 0
      vertex 0.0811379 0.425343 0
    endloop
  endfacet
  facet normal 0 0 -1
    outer loop
      vertex 0.0271888 -0.432158 0
      vertex 0.0542703 0.429598 0
      vertex 0.0542703 -0.429598 0
    endloop
  endfacet
  facet normal 0 0 -1
    outer loop
      vertex 0.0271888 -0.432158 0
      vertex 0.0271888 0.432158 0
      vertex 0.0542703 0.429598 0
    endloop
  endfacet
  facet normal 0 0 -1
    outer loop
      vertex 0 -0.433013 0
      vertex 0.0271888 0.432158 0
      vertex 0.0271888 -0.432158 0
    endloop
  endfacet
  facet normal 0 0 -1
    outer loop
      vertex 0 -0.433013 0
      vertex 0 0.433013 0
      vertex 0.0271888 0.432158 0
    endloop
  endfacet
  facet normal 0 0 -1
    outer loop
      vertex -0.0271888 -0.432158 0
      vertex 0 0.433013 0
      vertex 0 -0.433013 0
    endloop
  endfacet
  facet normal 0 0 -1
    outer loop
      vertex -0.0271888 -0.432158 0
      vertex -0.0271888 0.432158 0
      vertex 0 0.433013 0
    endloop
  endfacet
  facet normal 0 0 -1
    outer loop
      vertex -0.0542703 -0.429598 0
      vertex -0.0271888 0.432158 0
      vertex -0.0271888 -0.432158 0
    endloop
  endfacet
  facet normal 0 0 -1
    outer loop
      vertex -0.0542703 -0.429598 0
      vertex -0.0542703 0.429598 0
      vertex -0.0271888 0.432158 0
    endloop
  endfacet
  facet normal 0 0 -1
    outer loop
      vertex -0.0811379 -0.425343 0
      vertex -0.0542703 0.429598 0
      vertex -0.0542703 -0.429598 0
    endloop
  endfacet
  facet normal 0 0 -1
    outer loop
      vertex -0.0811379 -0.425343 0
      vertex -0.0811379 0.425343 0
      vertex -0.0542703 0.429598 0
    endloop
  endfacet
  facet normal 0 0 -1
    outer loop
      vertex -0.107686 -0.419408 0
      vertex -0.0811379 0.425343 0
      vertex -0.0811379 -0.425343 0
    endloop
  endfacet
  facet normal 0 0 -1
    outer loop
      vertex -0.107686 -0.419408 0
      vertex -0.107686 0.419408 0
      vertex -0.0811379 0.425343 0
    endloop
  endfacet
  facet normal 0 0 -1
    outer loop
      vertex -0.133808 -0.411819 0
      vertex -0.107686 0.419408 0
      vertex -0.107686 -0.419408 0
    endloop
  endfacet
  facet normal 0 0 -1
    outer loop
      vertex -0.133808 -0.411819 0
      vertex -0.133808 0.411819 0
      vertex -0.107686 0.419408 0
    endloop
  endfacet
  facet normal 0 0 -1
    outer loop
      vertex -0.159402 -0.402604 0
      vertex -0.133808 0.411819 0
      vertex -0.133808 -0.411819 0
    endloop
  endfacet
  facet normal 0 0 -1
    outer loop
      vertex -0.159402 -0.402604 0
      vertex -0.159402 0.402604 0
      vertex -0.133808 0.411819 0
    endloop
  endfacet
  facet normal 0 0 -1
    outer loop
      vertex -0.184367 -0.391801 0
      vertex -0.159402 0.402604 0
      vertex -0.159402 -0.402604 0
    endloop
  endfacet
  facet normal 0 0 -1
    outer loop
      vertex -0.184367 -0.391801 0
      vertex -0.184367 0.391801 0
      vertex -0.159402 0.402604 0
    endloop
  endfacet
  facet normal 0 0 -1
    outer loop
      vertex -0.208605 -0.379452 0
      vertex -0.184367 0.391801 0
      vertex -0.184367 -0.391801 0
    endloop
  endfacet
  facet normal 0 0 -1
    outer loop
      vertex -0.208605 -0.379452 0
      vertex -0.208605 0.379452 0
      vertex -0.184367 0.391801 0
    endloop
  endfacet
  facet normal 0 0 -1
    outer loop
      vertex -0.232019 -0.365604 0
      vertex -0.208605 0.379452 0
      vertex -0.208605 -0.379452 0
    endloop
  endfacet
  facet normal 0 0 -1
    outer loop
      vertex -0.232019 -0.365604 0
      vertex -0.232019 0.365604 0
      vertex -0.208605 0.379452 0
    endloop
  endfacet
  facet normal 0 0 -1
    outer loop
      vertex -0.254518 -0.350314 0
      vertex -0.232019 0.365604 0
      vertex -0.232019 -0.365604 0
    endloop
  endfacet
  facet normal 0 0 -1
    outer loop
      vertex -0.254518 -0.350314 0
      vertex -0.254518 0.350314 0
      vertex -0.232019 0.365604 0
    endloop
  endfacet
  facet normal 0 0 -1
    outer loop
      vertex -0.276012 -0.333641 0
      vertex -0.254518 0.350314 0
      vertex -0.254518 -0.350314 0
    endloop
  endfacet
  facet normal 0 0 -1
    outer loop
      vertex -0.276012 -0.333641 0
      vertex -0.276012 0.333641 0
      vertex -0.254518 0.350314 0
    endloop
  endfacet
  facet normal 0 0 -1
    outer loop
      vertex -0.296417 -0.315652 0
      vertex -0.276012 0.333641 0
      vertex -0.276012 -0.333641 0
    endloop
  endfacet
  facet normal 0 0 -1
    outer loop
      vertex -0.296417 -0.315652 0
      vertex -0.296417 0.315652 0
      vertex -0.276012 0.333641 0
    endloop
  endfacet
  facet normal 0 0 -1
    outer loop
      vertex -0.315652 -0.296417 0
      vertex -0.296417 0.315652 0
      vertex -0.296417 -0.315652 0
    endloop
  endfacet
  facet normal 0 0 -1
    outer loop
      vertex -0.315652 -0.296417 0
      vertex -0.315652 0.296417 0
      vertex -0.296417 0.315652 0
    endloop
  endfacet
  facet normal 0 0 -1
    outer loop
      vertex -0.333641 -0.276012 0
      vertex -0.315652 0.296417 0
      vertex -0.315652 -0.296417 0
    endloop
  endfacet
  facet normal 0 0 -1
    outer loop
      vertex -0.333641 -0.276012 0
      vertex -0.333641 0.276012 0
      vertex -0.315652 0.296417 0
    endloop
  endfacet
  facet normal 0 0 -1
    outer loop
      vertex -0.350314 -0.254518 0
      vertex -0.333641 0.276012 0
      vertex -0.333641 -0.276012 0
    endloop
  endfacet
  facet normal 0 0 -1
    outer loop
      vertex -0.350314 -0.254518 0
      vertex -0.350314 0.254518 0
      vertex -0.333641 0.276012 0
    endloop
  endfacet
  facet normal 0 0 -1
    outer loop
      vertex -0.365604 -0.232019 0
      vertex -0.350314 0.254518 0
      vertex -0.350314 -0.254518 0
    endloop
  endfacet
  facet normal 0 0 -1
    outer loop
      vertex -0.365604 -0.232019 0
      vertex -0.365604 0.232019 0
      vertex -0.350314 0.254518 0
    endloop
  endfacet
  facet normal 0 0 -1
    outer loop
      vertex -0.379452 -0.208605 0
      vertex -0.365604 0.232019 0
      vertex -0.365604 -0.232019 0
    endloop
  endfacet
  facet normal 0 0 -1
    outer loop
      vertex -0.379452 -0.208605 0
      vertex -0.379452 0.208605 0
      vertex -0.365604 0.232019 0
    endloop
  endfacet
  facet normal 0 0 -1
    outer loop
      vertex -0.391801 -0.184367 0
      vertex -0.379452 0.208605 0
      vertex -0.379452 -0.208605 0
    endloop
  endfacet
  facet normal 0 0 -1
    outer loop
      vertex -0.391801 -0.184367 0
      vertex -0.391801 0.184367 0
      vertex -0.379452 0.208605 0
    endloop
  endfacet
  facet normal 0 0 -1
    outer loop
      vertex -0.402604 -0.159402 0
      vertex -0.391801 0.184367 0
      vertex -0.391801 -0.184367 0
    endloop
  endfacet
  facet normal 0 0 -1
    outer loop
      vertex -0.402604 -0.159402 0
      vertex -0.402604 0.159402 0
      vertex -0.391801 0.184367 0
    endloop
  endfacet
  facet normal 0 0 -1
    outer loop
      vertex -0.411819 -0.133808 0
      vertex -0.402604 0.159402 0
      vertex -0.402604 -0.159402 0
    endloop
  endfacet
  facet normal 0 0 -1
    outer loop
      vertex -0.411819 -0.133808 0
      vertex -0.411819 0.133808 0
      vertex -0.402604 0.159402 0
    endloop
  endfacet
  facet normal 0 0 -1
    outer loop
      vertex -0.419408 -0.107686 0
      vertex -0.411819 0.133808 0
      vertex -0.411819 -0.133808 0
    endloop
  endfacet
  facet normal 0 0 -1
    outer loop
      vertex -0.419408 -0.107686 0
      vertex -0.419408 0.107686 0
      vertex -0.411819 0.133808 0
    endloop
  endfacet
  facet normal 0 0 -1
    outer loop
      vertex -0.425343 -0.0811379 0
      vertex -0.419408 0.107686 0
      vertex -0.419408 -0.107686 0
    endloop
  endfacet
  facet normal 0 0 -1
    outer loop
      vertex -0.425343 -0.0811379 0
      vertex -0.425343 0.0811379 0
      vertex -0.419408 0.107686 0
    endloop
  endfacet
  facet normal 0 0 -1
    outer loop
      vertex -0.429598 -0.0542703 0
      vertex -0.425343 0.0811379 0
      vertex -0.425343 -0.0811379 0
    endloop
  endfacet
  facet normal 0 0 -1
    outer loop
      vertex -0.429598 -0.0542703 0
      vertex -0.429598 0.0542703 0
      vertex -0.425343 0.0811379 0
    endloop
  endfacet
  facet normal 0 0 -1
    outer loop
      vertex -0.432158 -0.0271888 0
      vertex -0.429598 0.0542703 0
      vertex -0.429598 -0.0542703 0
    endloop
  endfacet
  facet normal 0 0 -1
    outer loop
      vertex -0.432158 -0.0271888 0
      vertex -0.432158 0.0271888 0
      vertex -0.429598 0.0542703 0
    endloop
  endfacet
  facet normal 0 -0 -1
    outer loop
      vertex -0.432158 0.0271888 0
      vertex -0.432158 -0.0271888 0
      vertex -0.433013 0 0
    endloop
  endfacet
  facet normal 0.975917 0.218142 0
    outer loop
      vertex 0.425343 0.0811379 0.0153404
      vertex 0.419408 0.107686 0
      vertex 0.419408 0.107686 0.0272087
    endloop
  endfacet
  facet normal 0.975917 0.218142 0
    outer loop
      vertex 0.419408 0.107686 0
      vertex 0.425343 0.0811379 0.0153404
      vertex 0.425343 0.0811379 0
    endloop
  endfacet
  facet normal 0.82708 0.562084 0
    outer loop
      vertex 0.365604 0.232019 0.134818
      vertex 0.350314 0.254518 0
      vertex 0.350314 0.254518 0.165398
    endloop
  endfacet
  facet normal 0.82708 0.562084 0
    outer loop
      vertex 0.350314 0.254518 0
      vertex 0.365604 0.232019 0.134818
      vertex 0.365604 0.232019 0
    endloop
  endfacet
  facet normal 0.891019 0.453965 0
    outer loop
      vertex 0.391801 0.184367 0.0824238
      vertex 0.379452 0.208605 0
      vertex 0.379452 0.208605 0.107122
    endloop
  endfacet
  facet normal 0.891019 0.453965 0
    outer loop
      vertex 0.379452 0.208605 0
      vertex 0.391801 0.184367 0.0824238
      vertex 0.391801 0.184367 0
    endloop
  endfacet
  facet normal 0.218142 0.975917 0
    outer loop
      vertex 0.0811379 0.425343 0
      vertex 0.107686 0.419408 0.650654
      vertex 0.107686 0.419408 0
    endloop
  endfacet
  facet normal 0.218142 0.975917 0
    outer loop
      vertex 0.107686 0.419408 0.650654
      vertex 0.0811379 0.425343 0
      vertex 0.0811379 0.425343 0.70375
    endloop
  endfacet
  facet normal 0.509061 0.860731 0
    outer loop
      vertex 0.208605 0.379452 0
      vertex 0.232019 0.365604 0.401987
      vertex 0.232019 0.365604 0
    endloop
  endfacet
  facet normal 0.509061 0.860731 0
    outer loop
      vertex 0.232019 0.365604 0.401987
      vertex 0.208605 0.379452 0
      vertex 0.208605 0.379452 0.448816
    endloop
  endfacet
  facet normal 0.612906 0.790156 0
    outer loop
      vertex 0.254518 0.350314 0
      vertex 0.276012 0.333641 0.314001
      vertex 0.276012 0.333641 0
    endloop
  endfacet
  facet normal 0.612906 0.790156 0
    outer loop
      vertex 0.276012 0.333641 0.314001
      vertex 0.254518 0.350314 0
      vertex 0.254518 0.350314 0.35699
    endloop
  endfacet
  facet normal -0.975917 0.218142 0
    outer loop
      vertex -0.425343 0.0811379 0.0153404
      vertex -0.419408 0.107686 0
      vertex -0.425343 0.0811379 0
    endloop
  endfacet
  facet normal -0.975917 0.218142 0
    outer loop
      vertex -0.419408 0.107686 0
      vertex -0.425343 0.0811379 0.0153404
      vertex -0.419408 0.107686 0.0272087
    endloop
  endfacet
  facet normal -0.790156 0.612906 0
    outer loop
      vertex -0.350314 0.254518 0.165398
      vertex -0.333641 0.276012 0
      vertex -0.350314 0.254518 0
    endloop
  endfacet
  facet normal -0.790156 0.612906 0
    outer loop
      vertex -0.333641 0.276012 0
      vertex -0.350314 0.254518 0.165398
      vertex -0.333641 0.276012 0.198743
    endloop
  endfacet
  facet normal -0.707107 0.707107 0
    outer loop
      vertex -0.315652 0.296417 0.234721
      vertex -0.296417 0.315652 0
      vertex -0.315652 0.296417 0
    endloop
  endfacet
  facet normal -0.707107 0.707107 0
    outer loop
      vertex -0.296417 0.315652 0
      vertex -0.315652 0.296417 0.234721
      vertex -0.296417 0.315652 0.273192
    endloop
  endfacet
  facet normal -0.509061 0.860731 0
    outer loop
      vertex -0.208605 0.379452 0
      vertex -0.232019 0.365604 0.401987
      vertex -0.208605 0.379452 0.448816
    endloop
  endfacet
  facet normal -0.509061 0.860731 0
    outer loop
      vertex -0.232019 0.365604 0.401987
      vertex -0.208605 0.379452 0
      vertex -0.232019 0.365604 0
    endloop
  endfacet
  facet normal -0.562084 0.82708 0
    outer loop
      vertex -0.232019 0.365604 0
      vertex -0.254518 0.350314 0.35699
      vertex -0.232019 0.365604 0.401987
    endloop
  endfacet
  facet normal -0.562084 0.82708 0
    outer loop
      vertex -0.254518 0.350314 0.35699
      vertex -0.232019 0.365604 0
      vertex -0.254518 0.350314 0
    endloop
  endfacet
  facet normal -0.218142 0.975917 0
    outer loop
      vertex -0.0811379 0.425343 0
      vertex -0.107686 0.419408 0.650654
      vertex -0.0811379 0.425343 0.70375
    endloop
  endfacet
  facet normal -0.218142 0.975917 0
    outer loop
      vertex -0.107686 0.419408 0.650654
      vertex -0.0811379 0.425343 0
      vertex -0.107686 0.419408 0
    endloop
  endfacet
  facet normal -0.0314246 0.999506 0
    outer loop
      vertex 0 0.433013 0
      vertex -0.0271888 0.432158 0.811648
      vertex 0 0.433013 0.866025
    endloop
  endfacet
  facet normal -0.0314246 0.999506 0
    outer loop
      vertex -0.0271888 0.432158 0.811648
      vertex 0 0.433013 0
      vertex -0.0271888 0.432158 0
    endloop
  endfacet
  facet normal 0.156423 -0.98769 0
    outer loop
      vertex 0.0542703 -0.429598 0
      vertex 0.0811379 -0.425343 0.70375
      vertex 0.0542703 -0.429598 0.757485
    endloop
  endfacet
  facet normal 0.156423 -0.98769 0
    outer loop
      vertex 0.0811379 -0.425343 0.70375
      vertex 0.0542703 -0.429598 0
      vertex 0.0811379 -0.425343 0
    endloop
  endfacet
  facet normal 0.0314253 -0.999506 -2.44915e-08
    outer loop
      vertex 0 -0.433013 0
      vertex 0.0271888 -0.432158 0.811648
      vertex 2.62678e-05 -0.433012 0.865973
    endloop
  endfacet
  facet normal 0.0314246 -0.999506 0
    outer loop
      vertex 0.0271888 -0.432158 0.811648
      vertex 0 -0.433013 0
      vertex 0.0271888 -0.432158 0
    endloop
  endfacet
  facet normal 0.218142 -0.975917 0
    outer loop
      vertex 0.0811379 -0.425343 0
      vertex 0.107686 -0.419408 0.650654
      vertex 0.0811379 -0.425343 0.70375
    endloop
  endfacet
  facet normal 0.218142 -0.975917 0
    outer loop
      vertex 0.107686 -0.419408 0.650654
      vertex 0.0811379 -0.425343 0
      vertex 0.107686 -0.419408 0
    endloop
  endfacet
  facet normal 0.562084 -0.82708 0
    outer loop
      vertex 0.232019 -0.365604 0
      vertex 0.254518 -0.350314 0.35699
      vertex 0.232019 -0.365604 0.401987
    endloop
  endfacet
  facet normal 0.562084 -0.82708 0
    outer loop
      vertex 0.254518 -0.350314 0.35699
      vertex 0.232019 -0.365604 0
      vertex 0.254518 -0.350314 0
    endloop
  endfacet
  facet normal 0.860731 -0.509061 0
    outer loop
      vertex 0.365604 -0.232019 0
      vertex 0.379452 -0.208605 0.107122
      vertex 0.365604 -0.232019 0.134818
    endloop
  endfacet
  facet normal 0.860731 -0.509061 0
    outer loop
      vertex 0.379452 -0.208605 0.107122
      vertex 0.365604 -0.232019 0
      vertex 0.379452 -0.208605 0
    endloop
  endfacet
  facet normal -0.707107 -0.707107 0
    outer loop
      vertex -0.296417 -0.315652 0
      vertex -0.315652 -0.296417 0.234721
      vertex -0.315652 -0.296417 0
    endloop
  endfacet
  facet normal -0.707107 -0.707107 0
    outer loop
      vertex -0.315652 -0.296417 0.234721
      vertex -0.296417 -0.315652 0
      vertex -0.296417 -0.315652 0.273192
    endloop
  endfacet
  facet normal -0.82708 -0.562084 0
    outer loop
      vertex -0.350314 -0.254518 0
      vertex -0.365604 -0.232019 0.134818
      vertex -0.365604 -0.232019 0
    endloop
  endfacet
  facet normal -0.82708 -0.562084 0
    outer loop
      vertex -0.365604 -0.232019 0.134818
      vertex -0.350314 -0.254518 0
      vertex -0.350314 -0.254518 0.165398
    endloop
  endfacet
  facet normal -0.975917 -0.218142 0
    outer loop
      vertex -0.419408 -0.107686 0
      vertex -0.425343 -0.0811379 0.0153404
      vertex -0.425343 -0.0811379 0
    endloop
  endfacet
  facet normal -0.975917 -0.218142 0
    outer loop
      vertex -0.425343 -0.0811379 0.0153404
      vertex -0.419408 -0.107686 0
      vertex -0.419408 -0.107686 0.0272087
    endloop
  endfacet
  facet normal -0.999506 -0.0314246 -0
    outer loop
      vertex -0.432158 -0.0271888 0.00170963
      vertex -0.433013 0 0
      vertex -0.432158 -0.0271888 0
    endloop
  endfacet
  facet normal 0.98769 0.156423 0
    outer loop
      vertex 0.429598 0.0542703 0.00683024
      vertex 0.425343 0.0811379 0
      vertex 0.425343 0.0811379 0.0153404
    endloop
  endfacet
  facet normal 0.98769 0.156423 0
    outer loop
      vertex 0.425343 0.0811379 0
      vertex 0.429598 0.0542703 0.00683024
      vertex 0.429598 0.0542703 0
    endloop
  endfacet
  facet normal 0.995561 0.0941206 0
    outer loop
      vertex 0.432158 0.0271888 0.00170963
      vertex 0.429598 0.0542703 0
      vertex 0.429598 0.0542703 0.00683024
    endloop
  endfacet
  facet normal 0.995561 0.0941206 0
    outer loop
      vertex 0.429598 0.0542703 0
      vertex 0.432158 0.0271888 0.00170963
      vertex 0.432158 0.0271888 0
    endloop
  endfacet
  facet normal 0.940882 0.338736 0
    outer loop
      vertex 0.411819 0.133808 0.0423872
      vertex 0.402604 0.159402 0
      vertex 0.402604 0.159402 0.0608164
    endloop
  endfacet
  facet normal 0.940882 0.338736 0
    outer loop
      vertex 0.402604 0.159402 0
      vertex 0.411819 0.133808 0.0423872
      vertex 0.411819 0.133808 0
    endloop
  endfacet
  facet normal 0.960292 0.278997 0
    outer loop
      vertex 0.419408 0.107686 0.0272087
      vertex 0.411819 0.133808 0
      vertex 0.411819 0.133808 0.0423872
    endloop
  endfacet
  facet normal 0.960292 0.278997 0
    outer loop
      vertex 0.411819 0.133808 0
      vertex 0.419408 0.107686 0.0272087
      vertex 0.419408 0.107686 0
    endloop
  endfacet
  facet normal 0.790156 0.612906 0
    outer loop
      vertex 0.350314 0.254518 0.165398
      vertex 0.333641 0.276012 0
      vertex 0.333641 0.276012 0.198743
    endloop
  endfacet
  facet normal 0.790156 0.612906 0
    outer loop
      vertex 0.333641 0.276012 0
      vertex 0.350314 0.254518 0.165398
      vertex 0.350314 0.254518 0
    endloop
  endfacet
  facet normal 0.750115 0.661307 0
    outer loop
      vertex 0.333641 0.276012 0.198743
      vertex 0.315652 0.296417 0
      vertex 0.315652 0.296417 0.234721
    endloop
  endfacet
  facet normal 0.750115 0.661307 0
    outer loop
      vertex 0.315652 0.296417 0
      vertex 0.333641 0.276012 0.198743
      vertex 0.333641 0.276012 0
    endloop
  endfacet
  facet normal 0.860731 0.509061 0
    outer loop
      vertex 0.379452 0.208605 0.107122
      vertex 0.365604 0.232019 0
      vertex 0.365604 0.232019 0.134818
    endloop
  endfacet
  facet normal 0.860731 0.509061 0
    outer loop
      vertex 0.365604 0.232019 0
      vertex 0.379452 0.208605 0.107122
      vertex 0.379452 0.208605 0
    endloop
  endfacet
  facet normal 0.278997 0.960292 0
    outer loop
      vertex 0.107686 0.419408 0
      vertex 0.133808 0.411819 0.59841
      vertex 0.133808 0.411819 0
    endloop
  endfacet
  facet normal 0.278997 0.960292 0
    outer loop
      vertex 0.133808 0.411819 0.59841
      vertex 0.107686 0.419408 0
      vertex 0.107686 0.419408 0.650654
    endloop
  endfacet
  facet normal 0.338736 0.940882 0
    outer loop
      vertex 0.133808 0.411819 0
      vertex 0.159402 0.402604 0.547221
      vertex 0.159402 0.402604 0
    endloop
  endfacet
  facet normal 0.338736 0.940882 0
    outer loop
      vertex 0.159402 0.402604 0.547221
      vertex 0.133808 0.411819 0
      vertex 0.133808 0.411819 0.59841
    endloop
  endfacet
  facet normal 0.156423 0.98769 0
    outer loop
      vertex 0.0542703 0.429598 0
      vertex 0.0811379 0.425343 0.70375
      vertex 0.0811379 0.425343 0
    endloop
  endfacet
  facet normal 0.156423 0.98769 0
    outer loop
      vertex 0.0811379 0.425343 0.70375
      vertex 0.0542703 0.429598 0
      vertex 0.0542703 0.429598 0.757485
    endloop
  endfacet
  facet normal 0.0941206 0.995561 0
    outer loop
      vertex 0.0271888 0.432158 0
      vertex 0.0542703 0.429598 0.757485
      vertex 0.0542703 0.429598 0
    endloop
  endfacet
  facet normal 0.0941206 0.995561 0
    outer loop
      vertex 0.0542703 0.429598 0.757485
      vertex 0.0271888 0.432158 0
      vertex 0.0271888 0.432158 0.811648
    endloop
  endfacet
  facet normal 0.453965 0.891019 0
    outer loop
      vertex 0.184367 0.391801 0
      vertex 0.208605 0.379452 0.448816
      vertex 0.208605 0.379452 0
    endloop
  endfacet
  facet normal 0.453965 0.891019 0
    outer loop
      vertex 0.208605 0.379452 0.448816
      vertex 0.184367 0.391801 0
      vertex 0.184367 0.391801 0.497291
    endloop
  endfacet
  facet normal 0.661307 0.750115 0
    outer loop
      vertex 0.276012 0.333641 0
      vertex 0.296417 0.315652 0.273192
      vertex 0.296417 0.315652 0
    endloop
  endfacet
  facet normal 0.661307 0.750115 0
    outer loop
      vertex 0.296417 0.315652 0.273192
      vertex 0.276012 0.333641 0
      vertex 0.276012 0.333641 0.314001
    endloop
  endfacet
  facet normal -0.750115 0.661307 0
    outer loop
      vertex -0.333641 0.276012 0.198743
      vertex -0.315652 0.296417 0
      vertex -0.333641 0.276012 0
    endloop
  endfacet
  facet normal -0.750115 0.661307 0
    outer loop
      vertex -0.315652 0.296417 0
      vertex -0.333641 0.276012 0.198743
      vertex -0.315652 0.296417 0.234721
    endloop
  endfacet
  facet normal -0.860731 0.509061 0
    outer loop
      vertex -0.379452 0.208605 0.107122
      vertex -0.365604 0.232019 0
      vertex -0.379452 0.208605 0
    endloop
  endfacet
  facet normal -0.860731 0.509061 0
    outer loop
      vertex -0.365604 0.232019 0
      vertex -0.379452 0.208605 0.107122
      vertex -0.365604 0.232019 0.134818
    endloop
  endfacet
  facet normal -0.891019 0.453965 0
    outer loop
      vertex -0.391801 0.184367 0.0824238
      vertex -0.379452 0.208605 0
      vertex -0.391801 0.184367 0
    endloop
  endfacet
  facet normal -0.891019 0.453965 0
    outer loop
      vertex -0.379452 0.208605 0
      vertex -0.391801 0.184367 0.0824238
      vertex -0.379452 0.208605 0.107122
    endloop
  endfacet
  facet normal -0.82708 0.562084 0
    outer loop
      vertex -0.365604 0.232019 0.134818
      vertex -0.350314 0.254518 0
      vertex -0.365604 0.232019 0
    endloop
  endfacet
  facet normal -0.82708 0.562084 0
    outer loop
      vertex -0.350314 0.254518 0
      vertex -0.365604 0.232019 0.134818
      vertex -0.350314 0.254518 0.165398
    endloop
  endfacet
  facet normal -0.960292 0.278997 0
    outer loop
      vertex -0.419408 0.107686 0.0272087
      vertex -0.411819 0.133808 0
      vertex -0.419408 0.107686 0
    endloop
  endfacet
  facet normal -0.960292 0.278997 0
    outer loop
      vertex -0.411819 0.133808 0
      vertex -0.419408 0.107686 0.0272087
      vertex -0.411819 0.133808 0.0423872
    endloop
  endfacet
  facet normal -0.940882 0.338736 0
    outer loop
      vertex -0.411819 0.133808 0.0423872
      vertex -0.402604 0.159402 0
      vertex -0.411819 0.133808 0
    endloop
  endfacet
  facet normal -0.940882 0.338736 0
    outer loop
      vertex -0.402604 0.159402 0
      vertex -0.411819 0.133808 0.0423872
      vertex -0.402604 0.159402 0.0608164
    endloop
  endfacet
  facet normal -0.98769 0.156423 0
    outer loop
      vertex -0.429598 0.0542703 0.00683024
      vertex -0.425343 0.0811379 0
      vertex -0.429598 0.0542703 0
    endloop
  endfacet
  facet normal -0.98769 0.156423 0
    outer loop
      vertex -0.425343 0.0811379 0
      vertex -0.429598 0.0542703 0.00683024
      vertex -0.425343 0.0811379 0.0153404
    endloop
  endfacet
  facet normal -0.995561 0.0941206 0
    outer loop
      vertex -0.432158 0.0271888 0.00170963
      vertex -0.429598 0.0542703 0
      vertex -0.432158 0.0271888 0
    endloop
  endfacet
  facet normal -0.995561 0.0941206 0
    outer loop
      vertex -0.429598 0.0542703 0
      vertex -0.432158 0.0271888 0.00170963
      vertex -0.429598 0.0542703 0.00683024
    endloop
  endfacet
  facet normal -0.453965 0.891019 0
    outer loop
      vertex -0.184367 0.391801 0
      vertex -0.208605 0.379452 0.448816
      vertex -0.184367 0.391801 0.497291
    endloop
  endfacet
  facet normal -0.453965 0.891019 0
    outer loop
      vertex -0.208605 0.379452 0.448816
      vertex -0.184367 0.391801 0
      vertex -0.208605 0.379452 0
    endloop
  endfacet
  facet normal -0.397163 0.917748 0
    outer loop
      vertex -0.159402 0.402604 0
      vertex -0.184367 0.391801 0.497291
      vertex -0.159402 0.402604 0.547221
    endloop
  endfacet
  facet normal -0.397163 0.917748 0
    outer loop
      vertex -0.184367 0.391801 0.497291
      vertex -0.159402 0.402604 0
      vertex -0.184367 0.391801 0
    endloop
  endfacet
  facet normal -0.612906 0.790156 0
    outer loop
      vertex -0.254518 0.350314 0
      vertex -0.276012 0.333641 0.314001
      vertex -0.254518 0.350314 0.35699
    endloop
  endfacet
  facet normal -0.612906 0.790156 0
    outer loop
      vertex -0.276012 0.333641 0.314001
      vertex -0.254518 0.350314 0
      vertex -0.276012 0.333641 0
    endloop
  endfacet
  facet normal -0.278997 0.960292 0
    outer loop
      vertex -0.107686 0.419408 0
      vertex -0.133808 0.411819 0.59841
      vertex -0.107686 0.419408 0.650654
    endloop
  endfacet
  facet normal -0.278997 0.960292 0
    outer loop
      vertex -0.133808 0.411819 0.59841
      vertex -0.107686 0.419408 0
      vertex -0.133808 0.411819 0
    endloop
  endfacet
  facet normal -0.0941206 0.995561 0
    outer loop
      vertex -0.0271888 0.432158 0
      vertex -0.0542703 0.429598 0.757485
      vertex -0.0271888 0.432158 0.811648
    endloop
  endfacet
  facet normal -0.0941206 0.995561 0
    outer loop
      vertex -0.0542703 0.429598 0.757485
      vertex -0.0271888 0.432158 0
      vertex -0.0542703 0.429598 0
    endloop
  endfacet
  facet normal 0.999506 -0.0314246 0
    outer loop
      vertex 0.432158 -0.0271888 0.00170963
      vertex 0.432158 -0.0271888 0
      vertex 0.433013 0 0
    endloop
  endfacet
  facet normal 0.0941206 -0.995561 0
    outer loop
      vertex 0.0271888 -0.432158 0
      vertex 0.0542703 -0.429598 0.757485
      vertex 0.0271888 -0.432158 0.811648
    endloop
  endfacet
  facet normal 0.0941206 -0.995561 0
    outer loop
      vertex 0.0542703 -0.429598 0.757485
      vertex 0.0271888 -0.432158 0
      vertex 0.0542703 -0.429598 0
    endloop
  endfacet
  facet normal 0.278997 -0.960292 0
    outer loop
      vertex 0.107686 -0.419408 0
      vertex 0.133808 -0.411819 0.59841
      vertex 0.107686 -0.419408 0.650654
    endloop
  endfacet
  facet normal 0.278997 -0.960292 0
    outer loop
      vertex 0.133808 -0.411819 0.59841
      vertex 0.107686 -0.419408 0
      vertex 0.133808 -0.411819 0
    endloop
  endfacet
  facet normal 0.612906 -0.790156 0
    outer loop
      vertex 0.254518 -0.350314 0
      vertex 0.276012 -0.333641 0.314001
      vertex 0.254518 -0.350314 0.35699
    endloop
  endfacet
  facet normal 0.612906 -0.790156 0
    outer loop
      vertex 0.276012 -0.333641 0.314001
      vertex 0.254518 -0.350314 0
      vertex 0.276012 -0.333641 0
    endloop
  endfacet
  facet normal 0.707107 -0.707107 0
    outer loop
      vertex 0.296417 -0.315652 0
      vertex 0.315652 -0.296417 0.234721
      vertex 0.296417 -0.315652 0.273192
    endloop
  endfacet
  facet normal 0.707107 -0.707107 0
    outer loop
      vertex 0.315652 -0.296417 0.234721
      vertex 0.296417 -0.315652 0
      vertex 0.315652 -0.296417 0
    endloop
  endfacet
  facet normal 0.509061 -0.860731 0
    outer loop
      vertex 0.208605 -0.379452 0
      vertex 0.232019 -0.365604 0.401987
      vertex 0.208605 -0.379452 0.448816
    endloop
  endfacet
  facet normal 0.509061 -0.860731 0
    outer loop
      vertex 0.232019 -0.365604 0.401987
      vertex 0.208605 -0.379452 0
      vertex 0.232019 -0.365604 0
    endloop
  endfacet
  facet normal 0.397163 -0.917748 0
    outer loop
      vertex 0.159402 -0.402604 0
      vertex 0.184367 -0.391801 0.497291
      vertex 0.159402 -0.402604 0.547221
    endloop
  endfacet
  facet normal 0.397163 -0.917748 0
    outer loop
      vertex 0.184367 -0.391801 0.497291
      vertex 0.159402 -0.402604 0
      vertex 0.184367 -0.391801 0
    endloop
  endfacet
  facet normal 0.750115 -0.661307 0
    outer loop
      vertex 0.315652 -0.296417 0
      vertex 0.333641 -0.276012 0.198743
      vertex 0.315652 -0.296417 0.234721
    endloop
  endfacet
  facet normal 0.750115 -0.661307 0
    outer loop
      vertex 0.333641 -0.276012 0.198743
      vertex 0.315652 -0.296417 0
      vertex 0.333641 -0.276012 0
    endloop
  endfacet
  facet normal 0.82708 -0.562084 0
    outer loop
      vertex 0.350314 -0.254518 0
      vertex 0.365604 -0.232019 0.134818
      vertex 0.350314 -0.254518 0.165398
    endloop
  endfacet
  facet normal 0.82708 -0.562084 0
    outer loop
      vertex 0.365604 -0.232019 0.134818
      vertex 0.350314 -0.254518 0
      vertex 0.365604 -0.232019 0
    endloop
  endfacet
  facet normal 0.891019 -0.453965 0
    outer loop
      vertex 0.379452 -0.208605 0
      vertex 0.391801 -0.184367 0.0824238
      vertex 0.379452 -0.208605 0.107122
    endloop
  endfacet
  facet normal 0.891019 -0.453965 0
    outer loop
      vertex 0.391801 -0.184367 0.0824238
      vertex 0.379452 -0.208605 0
      vertex 0.391801 -0.184367 0
    endloop
  endfacet
  facet normal 0.940882 -0.338736 0
    outer loop
      vertex 0.402604 -0.159402 0
      vertex 0.411819 -0.133808 0.0423872
      vertex 0.402604 -0.159402 0.0608164
    endloop
  endfacet
  facet normal 0.940882 -0.338736 0
    outer loop
      vertex 0.411819 -0.133808 0.0423872
      vertex 0.402604 -0.159402 0
      vertex 0.411819 -0.133808 0
    endloop
  endfacet
  facet normal 0.975917 -0.218142 0
    outer loop
      vertex 0.419408 -0.107686 0
      vertex 0.425343 -0.0811379 0.0153404
      vertex 0.419408 -0.107686 0.0272087
    endloop
  endfacet
  facet normal 0.975917 -0.218142 0
    outer loop
      vertex 0.425343 -0.0811379 0.0153404
      vertex 0.419408 -0.107686 0
      vertex 0.425343 -0.0811379 0
    endloop
  endfacet
  facet normal -0.661307 -0.750115 0
    outer loop
      vertex -0.276012 -0.333641 0
      vertex -0.296417 -0.315652 0.273192
      vertex -0.296417 -0.315652 0
    endloop
  endfacet
  facet normal -0.661307 -0.750115 0
    outer loop
      vertex -0.296417 -0.315652 0.273192
      vertex -0.276012 -0.333641 0
      vertex -0.276012 -0.333641 0.314001
    endloop
  endfacet
  facet normal -0.453965 -0.891019 0
    outer loop
      vertex -0.184367 -0.391801 0
      vertex -0.208605 -0.379452 0.448816
      vertex -0.208605 -0.379452 0
    endloop
  endfacet
  facet normal -0.453965 -0.891019 0
    outer loop
      vertex -0.208605 -0.379452 0.448816
      vertex -0.184367 -0.391801 0
      vertex -0.184367 -0.391801 0.497291
    endloop
  endfacet
  facet normal -0.562084 -0.82708 0
    outer loop
      vertex -0.232019 -0.365604 0
      vertex -0.254518 -0.350314 0.35699
      vertex -0.254518 -0.350314 0
    endloop
  endfacet
  facet normal -0.562084 -0.82708 0
    outer loop
      vertex -0.254518 -0.350314 0.35699
      vertex -0.232019 -0.365604 0
      vertex -0.232019 -0.365604 0.401987
    endloop
  endfacet
  facet normal -0.338736 -0.940882 0
    outer loop
      vertex -0.133808 -0.411819 0
      vertex -0.159402 -0.402604 0.547221
      vertex -0.159402 -0.402604 0
    endloop
  endfacet
  facet normal -0.338736 -0.940882 0
    outer loop
      vertex -0.159402 -0.402604 0.547221
      vertex -0.133808 -0.411819 0
      vertex -0.133808 -0.411819 0.59841
    endloop
  endfacet
  facet normal -0.218142 -0.975917 0
    outer loop
      vertex -0.0811379 -0.425343 0
      vertex -0.107686 -0.419408 0.650654
      vertex -0.107686 -0.419408 0
    endloop
  endfacet
  facet normal -0.218142 -0.975917 0
    outer loop
      vertex -0.107686 -0.419408 0.650654
      vertex -0.0811379 -0.425343 0
      vertex -0.0811379 -0.425343 0.70375
    endloop
  endfacet
  facet normal -0.156423 -0.98769 0
    outer loop
      vertex -0.0542703 -0.429598 0
      vertex -0.0811379 -0.425343 0.70375
      vertex -0.0811379 -0.425343 0
    endloop
  endfacet
  facet normal -0.156423 -0.98769 0
    outer loop
      vertex -0.0811379 -0.425343 0.70375
      vertex -0.0542703 -0.429598 0
      vertex -0.0542703 -0.429598 0.757485
    endloop
  endfacet
  facet normal -0.917748 -0.397163 0
    outer loop
      vertex -0.391801 -0.184367 0
      vertex -0.402604 -0.159402 0.0608164
      vertex -0.402604 -0.159402 0
    endloop
  endfacet
  facet normal -0.917748 -0.397163 0
    outer loop
      vertex -0.402604 -0.159402 0.0608164
      vertex -0.391801 -0.184367 0
      vertex -0.391801 -0.184367 0.0824238
    endloop
  endfacet
  facet normal -0.860731 -0.509061 0
    outer loop
      vertex -0.365604 -0.232019 0
      vertex -0.379452 -0.208605 0.107122
      vertex -0.379452 -0.208605 0
    endloop
  endfacet
  facet normal -0.860731 -0.509061 0
    outer loop
      vertex -0.379452 -0.208605 0.107122
      vertex -0.365604 -0.232019 0
      vertex -0.365604 -0.232019 0.134818
    endloop
  endfacet
  facet normal -0.790156 -0.612906 0
    outer loop
      vertex -0.333641 -0.276012 0
      vertex -0.350314 -0.254518 0.165398
      vertex -0.350314 -0.254518 0
    endloop
  endfacet
  facet normal -0.790156 -0.612906 0
    outer loop
      vertex -0.350314 -0.254518 0.165398
      vertex -0.333641 -0.276012 0
      vertex -0.333641 -0.276012 0.198743
    endloop
  endfacet
  facet normal -0.960292 -0.278997 0
    outer loop
      vertex -0.411819 -0.133808 0
      vertex -0.419408 -0.107686 0.0272087
      vertex -0.419408 -0.107686 0
    endloop
  endfacet
  facet normal -0.960292 -0.278997 0
    outer loop
      vertex -0.419408 -0.107686 0.0272087
      vertex -0.411819 -0.133808 0
      vertex -0.411819 -0.133808 0.0423872
    endloop
  endfacet
  facet normal -0.995561 -0.0941206 0
    outer loop
      vertex -0.429598 -0.0542703 0
      vertex -0.432158 -0.0271888 0.00170963
      vertex -0.432158 -0.0271888 0
    endloop
  endfacet
  facet normal -0.995561 -0.0941206 0
    outer loop
      vertex -0.432158 -0.0271888 0.00170963
      vertex -0.429598 -0.0542703 0
      vertex -0.429598 -0.0542703 0.00683024
    endloop
  endfacet
  facet normal 0.338736 -0.940882 0
    outer loop
      vertex 0.133808 -0.411819 0
      vertex 0.159402 -0.402604 0.547221
      vertex 0.133808 -0.411819 0.59841
    endloop
  endfacet
  facet normal 0.338736 -0.940882 0
    outer loop
      vertex 0.159402 -0.402604 0.547221
      vertex 0.133808 -0.411819 0
      vertex 0.159402 -0.402604 0
    endloop
  endfacet
  facet normal 0.661307 -0.750115 0
    outer loop
      vertex 0.276012 -0.333641 0
      vertex 0.296417 -0.315652 0.273192
      vertex 0.276012 -0.333641 0.314001
    endloop
  endfacet
  facet normal 0.661307 -0.750115 0
    outer loop
      vertex 0.296417 -0.315652 0.273192
      vertex 0.276012 -0.333641 0
      vertex 0.296417 -0.315652 0
    endloop
  endfacet
  facet normal 0.453965 -0.891019 0
    outer loop
      vertex 0.184367 -0.391801 0
      vertex 0.208605 -0.379452 0.448816
      vertex 0.184367 -0.391801 0.497291
    endloop
  endfacet
  facet normal 0.453965 -0.891019 0
    outer loop
      vertex 0.208605 -0.379452 0.448816
      vertex 0.184367 -0.391801 0
      vertex 0.208605 -0.379452 0
    endloop
  endfacet
  facet normal 0.790156 -0.612906 0
    outer loop
      vertex 0.333641 -0.276012 0
      vertex 0.350314 -0.254518 0.165398
      vertex 0.333641 -0.276012 0.198743
    endloop
  endfacet
  facet normal 0.790156 -0.612906 0
    outer loop
      vertex 0.350314 -0.254518 0.165398
      vertex 0.333641 -0.276012 0
      vertex 0.350314 -0.254518 0
    endloop
  endfacet
  facet normal 0.917748 -0.397163 0
    outer loop
      vertex 0.391801 -0.184367 0
      vertex 0.402604 -0.159402 0.0608164
      vertex 0.391801 -0.184367 0.0824238
    endloop
  endfacet
  facet normal 0.917748 -0.397163 0
    outer loop
      vertex 0.402604 -0.159402 0.0608164
      vertex 0.391801 -0.184367 0
      vertex 0.402604 -0.159402 0
    endloop
  endfacet
  facet normal 0.960292 -0.278997 0
    outer loop
      vertex 0.411819 -0.133808 0
      vertex 0.419408 -0.107686 0.0272087
      vertex 0.411819 -0.133808 0.0423872
    endloop
  endfacet
  facet normal 0.960292 -0.278997 0
    outer loop
      vertex 0.419408 -0.107686 0.0272087
      vertex 0.411819 -0.133808 0
      vertex 0.419408 -0.107686 0
    endloop
  endfacet
  facet normal 0.995561 -0.0941206 0
    outer loop
      vertex 0.429598 -0.0542703 0
      vertex 0.432158 -0.0271888 0.00170963
      vertex 0.429598 -0.0542703 0.00683024
    endloop
  endfacet
  facet normal 0.995561 -0.0941206 0
    outer loop
      vertex 0.432158 -0.0271888 0.00170963
      vertex 0.429598 -0.0542703 0
      vertex 0.432158 -0.0271888 0
    endloop
  endfacet
  facet normal 0.98769 -0.156423 0
    outer loop
      vertex 0.425343 -0.0811379 0
      vertex 0.429598 -0.0542703 0.00683024
      vertex 0.425343 -0.0811379 0.0153404
    endloop
  endfacet
  facet normal 0.98769 -0.156423 0
    outer loop
      vertex 0.429598 -0.0542703 0.00683024
      vertex 0.425343 -0.0811379 0
      vertex 0.429598 -0.0542703 0
    endloop
  endfacet
  facet normal -0.612906 -0.790156 0
    outer loop
      vertex -0.254518 -0.350314 0
      vertex -0.276012 -0.333641 0.314001
      vertex -0.276012 -0.333641 0
    endloop
  endfacet
  facet normal -0.612906 -0.790156 0
    outer loop
      vertex -0.276012 -0.333641 0.314001
      vertex -0.254518 -0.350314 0
      vertex -0.254518 -0.350314 0.35699
    endloop
  endfacet
  facet normal -0.397163 -0.917748 0
    outer loop
      vertex -0.159402 -0.402604 0
      vertex -0.184367 -0.391801 0.497291
      vertex -0.184367 -0.391801 0
    endloop
  endfacet
  facet normal -0.397163 -0.917748 0
    outer loop
      vertex -0.184367 -0.391801 0.497291
      vertex -0.159402 -0.402604 0
      vertex -0.159402 -0.402604 0.547221
    endloop
  endfacet
  facet normal -0.509061 -0.860731 0
    outer loop
      vertex -0.208605 -0.379452 0
      vertex -0.232019 -0.365604 0.401987
      vertex -0.232019 -0.365604 0
    endloop
  endfacet
  facet normal -0.509061 -0.860731 0
    outer loop
      vertex -0.232019 -0.365604 0.401987
      vertex -0.208605 -0.379452 0
      vertex -0.208605 -0.379452 0.448816
    endloop
  endfacet
  facet normal -0.278997 -0.960292 0
    outer loop
      vertex -0.107686 -0.419408 0
      vertex -0.133808 -0.411819 0.59841
      vertex -0.133808 -0.411819 0
    endloop
  endfacet
  facet normal -0.278997 -0.960292 0
    outer loop
      vertex -0.133808 -0.411819 0.59841
      vertex -0.107686 -0.419408 0
      vertex -0.107686 -0.419408 0.650654
    endloop
  endfacet
  facet normal -0.0941206 -0.995561 0
    outer loop
      vertex -0.0271888 -0.432158 0
      vertex -0.0542703 -0.429598 0.757485
      vertex -0.0542703 -0.429598 0
    endloop
  endfacet
  facet normal -0.0941206 -0.995561 0
    outer loop
      vertex -0.0542703 -0.429598 0.757485
      vertex -0.0271888 -0.432158 0
      vertex -0.0271888 -0.432158 0.811648
    endloop
  endfacet
  facet normal -0.891019 -0.453965 0
    outer loop
      vertex -0.379452 -0.208605 0
      vertex -0.391801 -0.184367 0.0824238
      vertex -0.391801 -0.184367 0
    endloop
  endfacet
  facet normal -0.891019 -0.453965 0
    outer loop
      vertex -0.391801 -0.184367 0.0824238
      vertex -0.379452 -0.208605 0
      vertex -0.379452 -0.208605 0.107122
    endloop
  endfacet
  facet normal -0.894427 0 0.447214
    outer loop
      vertex -0.0271888 -0.432158 0.811648
      vertex -0.0271888 0.432158 0.811648
      vertex -0.0542703 0.429598 0.757485
    endloop
  endfacet
  facet normal -0.894427 0 0.447214
    outer loop
      vertex -0.0542703 -0.429598 0.757485
      vertex -0.0542703 0.429598 0.757485
      vertex -0.0811379 0.425343 0.70375
    endloop
  endfacet
  facet normal -0.894427 0 0.447213
    outer loop
      vertex -0.0811379 -0.425343 0.70375
      vertex -0.0811379 0.425343 0.70375
      vertex -0.107686 0.419408 0.650654
    endloop
  endfacet
  facet normal -0.894427 0 0.447214
    outer loop
      vertex -0.107686 -0.419408 0.650654
      vertex -0.107686 0.419408 0.650654
      vertex -0.133808 0.411819 0.59841
    endloop
  endfacet
  facet normal -0.894427 0 0.447214
    outer loop
      vertex -0.133808 -0.411819 0.59841
      vertex -0.133808 0.411819 0.59841
      vertex -0.159402 0.402604 0.547221
    endloop
  endfacet
  facet normal -0.894427 0 0.447214
    outer loop
      vertex -0.159402 -0.402604 0.547221
      vertex -0.159402 0.402604 0.547221
      vertex -0.184367 0.391801 0.497291
    endloop
  endfacet
  facet normal -0.894427 0 0.447214
    outer loop
      vertex -0.184367 -0.391801 0.497291
      vertex -0.184367 0.391801 0.497291
      vertex -0.208605 0.379452 0.448816
    endloop
  endfacet
  facet normal -0.894427 0 0.447214
    outer loop
      vertex -0.208605 -0.379452 0.448816
      vertex -0.208605 0.379452 0.448816
      vertex -0.232019 0.365604 0.401987
    endloop
  endfacet
  facet normal -0.894427 0 0.447213
    outer loop
      vertex -0.232019 -0.365604 0.401987
      vertex -0.232019 0.365604 0.401987
      vertex -0.254518 0.350314 0.35699
    endloop
  endfacet
  facet normal -0.894427 0 0.447214
    outer loop
      vertex -0.254518 -0.350314 0.35699
      vertex -0.254518 0.350314 0.35699
      vertex -0.276012 0.333641 0.314001
    endloop
  endfacet
  facet normal -0.894427 0 0.447214
    outer loop
      vertex -0.276012 -0.333641 0.314001
      vertex -0.276012 0.333641 0.314001
      vertex -0.296417 0.315652 0.273192
    endloop
  endfacet
  facet normal -0.894427 0 0.447213
    outer loop
      vertex -0.296417 -0.315652 0.273192
      vertex -0.296417 0.315652 0.273192
      vertex -0.315652 0.296417 0.234721
    endloop
  endfacet
  facet normal -0.894427 0 0.447214
    outer loop
      vertex -0.315652 -0.296417 0.234721
      vertex -0.315652 0.296417 0.234721
      vertex -0.333641 0.276012 0.198743
    endloop
  endfacet
  facet normal -0.894427 0 0.447214
    outer loop
      vertex -0.333641 -0.276012 0.198743
      vertex -0.333641 0.276012 0.198743
      vertex -0.350314 0.254518 0.165398
    endloop
  endfacet
  facet normal -0.894427 0 0.447213
    outer loop
      vertex -0.350314 -0.254518 0.165398
      vertex -0.350314 0.254518 0.165398
      vertex -0.365604 0.232019 0.134818
    endloop
  endfacet
  facet normal -0.894427 0 0.447214
    outer loop
      vertex -0.365604 -0.232019 0.134818
      vertex -0.365604 0.232019 0.134818
      vertex -0.379452 0.208605 0.107122
    endloop
  endfacet
  facet normal -0.894427 0 0.447214
    outer loop
      vertex -0.379452 -0.208605 0.107122
      vertex -0.379452 0.208605 0.107122
      vertex -0.391801 0.184367 0.0824238
    endloop
  endfacet
  facet normal -0.894427 0 0.447213
    outer loop
      vertex -0.391801 -0.184367 0.0824238
      vertex -0.391801 0.184367 0.0824238
      vertex -0.402604 0.159402 0.0608164
    endloop
  endfacet
  facet normal -0.894427 0 0.447214
    outer loop
      vertex -0.402604 -0.159402 0.0608164
      vertex -0.402604 0.159402 0.0608164
      vertex -0.411819 0.133808 0.0423872
    endloop
  endfacet
  facet normal -0.894427 0 0.447214
    outer loop
      vertex -0.411819 -0.133808 0.0423872
      vertex -0.411819 0.133808 0.0423872
      vertex -0.419408 0.107686 0.0272087
    endloop
  endfacet
  facet normal -0.894428 0 0.447213
    outer loop
      vertex -0.419408 -0.107686 0.0272087
      vertex -0.419408 0.107686 0.0272087
      vertex -0.425343 0.0811379 0.0153404
    endloop
  endfacet
  facet normal -0.894427 1.65639e-07 0.447215
    outer loop
      vertex -0.419408 -0.107686 0.0272087
      vertex -0.425343 0.0811379 0.0153404
      vertex -0.429598 0.0542703 0.00683024
    endloop
  endfacet
  facet normal -0.894428 -2.85757e-07 0.447212
    outer loop
      vertex -0.419408 -0.107686 0.0272087
      vertex -0.429598 0.0542703 0.00683024
      vertex -0.432158 0.0271888 0.00170963
    endloop
  endfacet
  facet normal -0.894427 2.10181e-07 0.447214
    outer loop
      vertex -0.419408 -0.107686 0.0272087
      vertex -0.432158 0.0271888 0.00170963
      vertex -0.433013 0 0
    endloop
  endfacet
  facet normal -0.894428 -3.49455e-07 0.447212
    outer loop
      vertex -0.419408 -0.107686 0.0272087
      vertex -0.433013 0 0
      vertex -0.432158 -0.0271888 0.00170963
    endloop
  endfacet
  facet normal -0.894426 1.41791e-06 0.447217
    outer loop
      vertex -0.419408 -0.107686 0.0272087
      vertex -0.432158 -0.0271888 0.00170963
      vertex -0.429598 -0.0542703 0.00683024
    endloop
  endfacet
  facet normal -0.894431 -3.43199e-06 0.447206
    outer loop
      vertex -0.419408 -0.107686 0.0272087
      vertex -0.429598 -0.0542703 0.00683024
      vertex -0.425343 -0.0811379 0.0153404
    endloop
  endfacet
  facet normal -0.894427 0 0.447214
    outer loop
      vertex -0.419408 0.107686 0.0272087
      vertex -0.419408 -0.107686 0.0272087
      vertex -0.411819 -0.133808 0.0423872
    endloop
  endfacet
  facet normal -0.894427 0 0.447214
    outer loop
      vertex -0.411819 0.133808 0.0423872
      vertex -0.411819 -0.133808 0.0423872
      vertex -0.402604 -0.159402 0.0608164
    endloop
  endfacet
  facet normal -0.894427 0 0.447213
    outer loop
      vertex -0.402604 0.159402 0.0608164
      vertex -0.402604 -0.159402 0.0608164
      vertex -0.391801 -0.184367 0.0824238
    endloop
  endfacet
  facet normal -0.894427 0 0.447214
    outer loop
      vertex -0.391801 0.184367 0.0824238
      vertex -0.391801 -0.184367 0.0824238
      vertex -0.379452 -0.208605 0.107122
    endloop
  endfacet
  facet normal -0.894427 0 0.447214
    outer loop
      vertex -0.379452 0.208605 0.107122
      vertex -0.379452 -0.208605 0.107122
      vertex -0.365604 -0.232019 0.134818
    endloop
  endfacet
  facet normal -0.894427 0 0.447213
    outer loop
      vertex -0.365604 0.232019 0.134818
      vertex -0.365604 -0.232019 0.134818
      vertex -0.350314 -0.254518 0.165398
    endloop
  endfacet
  facet normal -0.894427 0 0.447214
    outer loop
      vertex -0.350314 0.254518 0.165398
      vertex -0.350314 -0.254518 0.165398
      vertex -0.333641 -0.276012 0.198743
    endloop
  endfacet
  facet normal -0.894427 0 0.447214
    outer loop
      vertex -0.333641 0.276012 0.198743
      vertex -0.333641 -0.276012 0.198743
      vertex -0.315652 -0.296417 0.234721
    endloop
  endfacet
  facet normal -0.894427 0 0.447213
    outer loop
      vertex -0.315652 0.296417 0.234721
      vertex -0.315652 -0.296417 0.234721
      vertex -0.296417 -0.315652 0.273192
    endloop
  endfacet
  facet normal -0.894427 0 0.447214
    outer loop
      vertex -0.296417 0.315652 0.273192
      vertex -0.296417 -0.315652 0.273192
      vertex -0.276012 -0.333641 0.314001
    endloop
  endfacet
  facet normal -0.894427 0 0.447214
    outer loop
      vertex -0.276012 0.333641 0.314001
      vertex -0.276012 -0.333641 0.314001
      vertex -0.254518 -0.350314 0.35699
    endloop
  endfacet
  facet normal -0.894427 0 0.447213
    outer loop
      vertex -0.254518 0.350314 0.35699
      vertex -0.254518 -0.350314 0.35699
      vertex -0.232019 -0.365604 0.401987
    endloop
  endfacet
  facet normal -0.894427 0 0.447214
    outer loop
      vertex -0.232019 0.365604 0.401987
      vertex -0.232019 -0.365604 0.401987
      vertex -0.208605 -0.379452 0.448816
    endloop
  endfacet
  facet normal -0.894427 0 0.447214
    outer loop
      vertex -0.208605 0.379452 0.448816
      vertex -0.208605 -0.379452 0.448816
      vertex -0.184367 -0.391801 0.497291
    endloop
  endfacet
  facet normal -0.894427 0 0.447214
    outer loop
      vertex -0.184367 0.391801 0.497291
      vertex -0.184367 -0.391801 0.497291
      vertex -0.159402 -0.402604 0.547221
    endloop
  endfacet
  facet normal -0.894427 0 0.447214
    outer loop
      vertex -0.159402 0.402604 0.547221
      vertex -0.159402 -0.402604 0.547221
      vertex -0.133808 -0.411819 0.59841
    endloop
  endfacet
  facet normal -0.894427 0 0.447214
    outer loop
      vertex -0.133808 0.411819 0.59841
      vertex -0.133808 -0.411819 0.59841
      vertex -0.107686 -0.419408 0.650654
    endloop
  endfacet
  facet normal -0.894427 0 0.447213
    outer loop
      vertex -0.107686 0.419408 0.650654
      vertex -0.107686 -0.419408 0.650654
      vertex -0.0811379 -0.425343 0.70375
    endloop
  endfacet
  facet normal -0.894427 0 0.447214
    outer loop
      vertex -0.0811379 0.425343 0.70375
      vertex -0.0811379 -0.425343 0.70375
      vertex -0.0542703 -0.429598 0.757485
    endloop
  endfacet
  facet normal -0.894427 0 0.447214
    outer loop
      vertex -0.0271888 -0.432158 0.811648
      vertex -0.0542703 0.429598 0.757485
      vertex -0.0542703 -0.429598 0.757485
    endloop
  endfacet
  facet normal -0.894427 0 0.447214
    outer loop
      vertex -0.0271888 0.432158 0.811648
      vertex -0.0271888 -0.432158 0.811648
      vertex 0 0.433013 0.866025
    endloop
  endfacet
  facet normal -0.894427 1.23734e-08 0.447213
    outer loop
      vertex -2.62678e-05 -0.433012 0.865973
      vertex 0 0.433013 0.866025
      vertex -0.0271888 -0.432158 0.811648
    endloop
  endfacet
  facet normal -0.894346 0 0.447377
    outer loop
      vertex 0 0.433013 0.866025
      vertex -2.62678e-05 -0.433012 0.865973
      vertex 0 -0.433012 0.866025
    endloop
  endfacet
  facet normal 0 -1 0
    outer loop
      vertex -2.62678e-05 -0.433012 0.865973
      vertex 2.62678e-05 -0.433012 0.865973
      vertex 0 -0.433012 0.866025
    endloop
  endfacet
  facet normal 0 -1 9.29201e-07
    outer loop
      vertex 2.62678e-05 -0.433012 0.865973
      vertex -2.62678e-05 -0.433012 0.865973
      vertex 0 -0.433013 0
    endloop
  endfacet
  facet normal 0.894427 -0 0.447214
    outer loop
      vertex 0.0271888 -0.432158 0.811648
      vertex 0.0271888 0.432158 0.811648
      vertex 0 0.433013 0.866025
    endloop
  endfacet
  facet normal 0.894427 0 0.447214
    outer loop
      vertex 0.0271888 0.432158 0.811648
      vertex 0.0271888 -0.432158 0.811648
      vertex 0.0542703 0.429598 0.757485
    endloop
  endfacet
  facet normal 0.894427 0 0.447214
    outer loop
      vertex 0.0542703 0.429598 0.757485
      vertex 0.0542703 -0.429598 0.757485
      vertex 0.0811379 0.425343 0.70375
    endloop
  endfacet
  facet normal 0.894427 -0 0.447214
    outer loop
      vertex 0.0811379 -0.425343 0.70375
      vertex 0.0811379 0.425343 0.70375
      vertex 0.0542703 -0.429598 0.757485
    endloop
  endfacet
  facet normal 0.894427 -0 0.447213
    outer loop
      vertex 0.107686 -0.419408 0.650654
      vertex 0.107686 0.419408 0.650654
      vertex 0.0811379 -0.425343 0.70375
    endloop
  endfacet
  facet normal 0.894427 0 0.447214
    outer loop
      vertex 0.107686 0.419408 0.650654
      vertex 0.107686 -0.419408 0.650654
      vertex 0.133808 0.411819 0.59841
    endloop
  endfacet
  facet normal 0.894427 0 0.447214
    outer loop
      vertex 0.133808 0.411819 0.59841
      vertex 0.133808 -0.411819 0.59841
      vertex 0.159402 0.402604 0.547221
    endloop
  endfacet
  facet normal 0.894427 -0 0.447214
    outer loop
      vertex 0.159402 -0.402604 0.547221
      vertex 0.159402 0.402604 0.547221
      vertex 0.133808 -0.411819 0.59841
    endloop
  endfacet
  facet normal 0.894427 -0 0.447214
    outer loop
      vertex 0.184367 -0.391801 0.497291
      vertex 0.184367 0.391801 0.497291
      vertex 0.159402 -0.402604 0.547221
    endloop
  endfacet
  facet normal 0.894427 0 0.447214
    outer loop
      vertex 0.184367 0.391801 0.497291
      vertex 0.184367 -0.391801 0.497291
      vertex 0.208605 0.379452 0.448816
    endloop
  endfacet
  facet normal 0.894427 0 0.447214
    outer loop
      vertex 0.208605 0.379452 0.448816
      vertex 0.208605 -0.379452 0.448816
      vertex 0.232019 0.365604 0.401987
    endloop
  endfacet
  facet normal 0.894427 -0 0.447214
    outer loop
      vertex 0.232019 -0.365604 0.401987
      vertex 0.232019 0.365604 0.401987
      vertex 0.208605 -0.379452 0.448816
    endloop
  endfacet
  facet normal 0.894427 -0 0.447213
    outer loop
      vertex 0.254518 -0.350314 0.35699
      vertex 0.254518 0.350314 0.35699
      vertex 0.232019 -0.365604 0.401987
    endloop
  endfacet
  facet normal 0.894427 0 0.447214
    outer loop
      vertex 0.254518 0.350314 0.35699
      vertex 0.254518 -0.350314 0.35699
      vertex 0.276012 0.333641 0.314001
    endloop
  endfacet
  facet normal 0.894427 0 0.447214
    outer loop
      vertex 0.276012 0.333641 0.314001
      vertex 0.276012 -0.333641 0.314001
      vertex 0.296417 0.315652 0.273192
    endloop
  endfacet
  facet normal 0.894427 -0 0.447214
    outer loop
      vertex 0.296417 -0.315652 0.273192
      vertex 0.296417 0.315652 0.273192
      vertex 0.276012 -0.333641 0.314001
    endloop
  endfacet
  facet normal 0.894427 -0 0.447213
    outer loop
      vertex 0.315652 -0.296417 0.234721
      vertex 0.315652 0.296417 0.234721
      vertex 0.296417 -0.315652 0.273192
    endloop
  endfacet
  facet normal 0.894427 0 0.447214
    outer loop
      vertex 0.315652 0.296417 0.234721
      vertex 0.315652 -0.296417 0.234721
      vertex 0.333641 0.276012 0.198743
    endloop
  endfacet
  facet normal 0.894427 0 0.447214
    outer loop
      vertex 0.333641 0.276012 0.198743
      vertex 0.333641 -0.276012 0.198743
      vertex 0.350314 0.254518 0.165398
    endloop
  endfacet
  facet normal 0.894427 -0 0.447214
    outer loop
      vertex 0.350314 -0.254518 0.165398
      vertex 0.350314 0.254518 0.165398
      vertex 0.333641 -0.276012 0.198743
    endloop
  endfacet
  facet normal 0.894427 -0 0.447213
    outer loop
      vertex 0.365604 -0.232019 0.134818
      vertex 0.365604 0.232019 0.134818
      vertex 0.350314 -0.254518 0.165398
    endloop
  endfacet
  facet normal 0.894427 0 0.447214
    outer loop
      vertex 0.365604 0.232019 0.134818
      vertex 0.365604 -0.232019 0.134818
      vertex 0.379452 0.208605 0.107122
    endloop
  endfacet
  facet normal 0.894427 0 0.447214
    outer loop
      vertex 0.379452 0.208605 0.107122
      vertex 0.379452 -0.208605 0.107122
      vertex 0.391801 0.184367 0.0824238
    endloop
  endfacet
  facet normal 0.894427 -0 0.447214
    outer loop
      vertex 0.391801 -0.184367 0.0824238
      vertex 0.391801 0.184367 0.0824238
      vertex 0.379452 -0.208605 0.107122
    endloop
  endfacet
  facet normal 0.894427 -0 0.447213
    outer loop
      vertex 0.402604 -0.159402 0.0608164
      vertex 0.402604 0.159402 0.0608164
      vertex 0.391801 -0.184367 0.0824238
    endloop
  endfacet
  facet normal 0.894427 0 0.447214
    outer loop
      vertex 0.402604 0.159402 0.0608164
      vertex 0.402604 -0.159402 0.0608164
      vertex 0.411819 0.133808 0.0423872
    endloop
  endfacet
  facet normal 0.894427 0 0.447214
    outer loop
      vertex 0.411819 0.133808 0.0423872
      vertex 0.411819 -0.133808 0.0423872
      vertex 0.419408 0.107686 0.0272087
    endloop
  endfacet
  facet normal 0.894427 -0 0.447214
    outer loop
      vertex 0.419408 -0.107686 0.0272087
      vertex 0.419408 0.107686 0.0272087
      vertex 0.411819 -0.133808 0.0423872
    endloop
  endfacet
  facet normal 0.894427 1.65639e-07 0.447215
    outer loop
      vertex 0.425343 0.0811379 0.0153404
      vertex 0.419408 -0.107686 0.0272087
      vertex 0.429598 0.0542703 0.00683024
    endloop
  endfacet
  facet normal 0.894427 2.10181e-07 0.447214
    outer loop
      vertex 0.432158 0.0271888 0.00170963
      vertex 0.419408 -0.107686 0.0272087
      vertex 0.433013 0 0
    endloop
  endfacet
  facet normal 0.894428 -3.49455e-07 0.447212
    outer loop
      vertex 0.433013 0 0
      vertex 0.419408 -0.107686 0.0272087
      vertex 0.432158 -0.0271888 0.00170963
    endloop
  endfacet
  facet normal 0.894431 -3.43199e-06 0.447206
    outer loop
      vertex 0.429598 -0.0542703 0.00683024
      vertex 0.419408 -0.107686 0.0272087
      vertex 0.425343 -0.0811379 0.0153404
    endloop
  endfacet
  facet normal 0.894426 1.41791e-06 0.447217
    outer loop
      vertex 0.432158 -0.0271888 0.00170963
      vertex 0.419408 -0.107686 0.0272087
      vertex 0.429598 -0.0542703 0.00683024
    endloop
  endfacet
  facet normal 0.894428 -2.85757e-07 0.447212
    outer loop
      vertex 0.429598 0.0542703 0.00683024
      vertex 0.419408 -0.107686 0.0272087
      vertex 0.432158 0.0271888 0.00170963
    endloop
  endfacet
  facet normal 0.894428 0 0.447213
    outer loop
      vertex 0.419408 0.107686 0.0272087
      vertex 0.419408 -0.107686 0.0272087
      vertex 0.425343 0.0811379 0.0153404
    endloop
  endfacet
  facet normal 0.894427 -0 0.447214
    outer loop
      vertex 0.411819 -0.133808 0.0423872
      vertex 0.411819 0.133808 0.0423872
      vertex 0.402604 -0.159402 0.0608164
    endloop
  endfacet
  facet normal 0.894427 0 0.447213
    outer loop
      vertex 0.391801 0.184367 0.0824238
      vertex 0.391801 -0.184367 0.0824238
      vertex 0.402604 0.159402 0.0608164
    endloop
  endfacet
  facet normal 0.894427 -0 0.447214
    outer loop
      vertex 0.379452 -0.208605 0.107122
      vertex 0.379452 0.208605 0.107122
      vertex 0.365604 -0.232019 0.134818
    endloop
  endfacet
  facet normal 0.894427 0 0.447213
    outer loop
      vertex 0.350314 0.254518 0.165398
      vertex 0.350314 -0.254518 0.165398
      vertex 0.365604 0.232019 0.134818
    endloop
  endfacet
  facet normal 0.894427 -0 0.447214
    outer loop
      vertex 0.333641 -0.276012 0.198743
      vertex 0.333641 0.276012 0.198743
      vertex 0.315652 -0.296417 0.234721
    endloop
  endfacet
  facet normal 0.894427 0 0.447213
    outer loop
      vertex 0.296417 0.315652 0.273192
      vertex 0.296417 -0.315652 0.273192
      vertex 0.315652 0.296417 0.234721
    endloop
  endfacet
  facet normal 0.894427 -0 0.447214
    outer loop
      vertex 0.276012 -0.333641 0.314001
      vertex 0.276012 0.333641 0.314001
      vertex 0.254518 -0.350314 0.35699
    endloop
  endfacet
  facet normal 0.894427 0 0.447213
    outer loop
      vertex 0.232019 0.365604 0.401987
      vertex 0.232019 -0.365604 0.401987
      vertex 0.254518 0.350314 0.35699
    endloop
  endfacet
  facet normal 0.894427 -0 0.447214
    outer loop
      vertex 0.208605 -0.379452 0.448816
      vertex 0.208605 0.379452 0.448816
      vertex 0.184367 -0.391801 0.497291
    endloop
  endfacet
  facet normal 0.894427 0 0.447214
    outer loop
      vertex 0.159402 0.402604 0.547221
      vertex 0.159402 -0.402604 0.547221
      vertex 0.184367 0.391801 0.497291
    endloop
  endfacet
  facet normal 0.894427 -0 0.447214
    outer loop
      vertex 0.133808 -0.411819 0.59841
      vertex 0.133808 0.411819 0.59841
      vertex 0.107686 -0.419408 0.650654
    endloop
  endfacet
  facet normal 0.894427 0 0.447213
    outer loop
      vertex 0.0811379 0.425343 0.70375
      vertex 0.0811379 -0.425343 0.70375
      vertex 0.107686 0.419408 0.650654
    endloop
  endfacet
  facet normal 0.894427 0 0.447214
    outer loop
      vertex 0.0542703 0.429598 0.757485
      vertex 0.0271888 -0.432158 0.811648
      vertex 0.0542703 -0.429598 0.757485
    endloop
  endfacet
  facet normal 0.894346 0 0.447377
    outer loop
      vertex 2.62678e-05 -0.433012 0.865973
      vertex 0 0.433013 0.866025
      vertex 0 -0.433012 0.866025
    endloop
  endfacet
  facet normal 0.894427 1.23734e-08 0.447213
    outer loop
      vertex 0 0.433013 0.866025
      vertex 2.62678e-05 -0.433012 0.865973
      vertex 0.0271888 -0.432158 0.811648
    endloop
  endfacet
endsolid OpenSCAD_Model
